<?xml version="1.0" encoding="UTF-8" standalone="no"?>
<svg
   xmlns:dc="http://purl.org/dc/elements/1.1/"
   xmlns:cc="http://creativecommons.org/ns#"
   xmlns:rdf="http://www.w3.org/1999/02/22-rdf-syntax-ns#"
   xmlns:svg="http://www.w3.org/2000/svg"
   xmlns="http://www.w3.org/2000/svg"
   xmlns:sodipodi="http://sodipodi.sourceforge.net/DTD/sodipodi-0.dtd"
   xmlns:inkscape="http://www.inkscape.org/namespaces/inkscape"
   width="24"
   height="24"
   viewBox="0 0 24 24"
   version="1.1"
   id="svg8"
   inkscape:version="1.0.2 (394de47547, 2021-03-26)"
   sodipodi:docname="alpha.svg">
  <defs
     id="defs2" />
  <sodipodi:namedview
     id="base"
     pagecolor="#ffffff"
     bordercolor="#666666"
     borderopacity="1.0"
     inkscape:pageopacity="0.0"
     inkscape:pageshadow="2"
     inkscape:zoom="3.959798"
     inkscape:cx="5.033325"
     inkscape:cy="39.627333"
     inkscape:document-units="mm"
     inkscape:current-layer="text839"
     inkscape:document-rotation="0"
     showgrid="false"
     units="px"
     inkscape:window-width="1920"
     inkscape:window-height="1025"
     inkscape:window-x="1920"
     inkscape:window-y="27"
     inkscape:window-maximized="1" />
  <metadata
     id="metadata5">
    <rdf:RDF>
      <cc:Work
         rdf:about="">
        <dc:format>image/svg+xml</dc:format>
        <dc:type
           rdf:resource="http://purl.org/dc/dcmitype/StillImage" />
        <dc:title></dc:title>
      </cc:Work>
    </rdf:RDF>
  </metadata>
  <g
     inkscape:label="Layer 1"
     inkscape:groupmode="layer"
     id="layer1">
    <g
       aria-label="Α"
       id="text839"
       style="font-size:6.43543px;line-height:1.25;font-family:sans-serif;text-align:center;text-anchor:middle;stroke-width:0.402214">
      <g
         aria-label="α"
         id="text29"
         style="font-size:30.0841px;line-height:1.25;font-family:sans-serif;stroke-width:0.756266">
        <path
           d="M 14.401734,12.57328 13.755395,9.1800053 Q 13.094368,5.7132827 10.479636,5.6985932 8.5112431,5.6839037 7.6151835,7.3144385 6.4840918,9.3269003 6.4840918,12.015079 q 0,3.231691 1.1017126,4.774088 1.1164022,1.571777 2.8938316,1.571777 1.968394,0 3.026038,-3.128864 z m 1.513018,-4.4949874 1.454261,-4.3040242 h 2.409078 l -3.011348,8.9165276 0.58758,3.217001 q 0.132206,0.719786 0.646339,1.322056 0.602269,0.705096 1.072333,0.705096 h 1.292676 v 2.291562 h -1.615845 q -1.380813,0 -2.614731,-1.233918 -0.60227,-0.616959 -0.851991,-1.909635 -0.646338,1.571776 -2.056531,2.908521 -0.646338,0.616959 -2.746937,0.60227 -3.4373431,-0.02938 -5.1266359,-2.232805 -1.7186718,-2.291562 -1.7186718,-6.345865 0,-4.362782 1.8655668,-6.3458648 2.0712198,-2.2181148 4.9797409,-2.2621833 4.568436,-0.073448 5.435116,4.6712617 z"
           style="stroke-width:0.756266"
           id="path33" />
      </g>
    </g>
  </g>
</svg>
