<?xml version="1.0" encoding="UTF-8" standalone="no"?>
<svg
   xmlns:dc="http://purl.org/dc/elements/1.1/"
   xmlns:cc="http://creativecommons.org/ns#"
   xmlns:rdf="http://www.w3.org/1999/02/22-rdf-syntax-ns#"
   xmlns:svg="http://www.w3.org/2000/svg"
   xmlns="http://www.w3.org/2000/svg"
   xmlns:sodipodi="http://sodipodi.sourceforge.net/DTD/sodipodi-0.dtd"
   xmlns:inkscape="http://www.inkscape.org/namespaces/inkscape"
   width="24"
   height="24"
   viewBox="0 0 24 24"
   version="1.1"
   id="svg8"
   inkscape:version="1.0.2 (394de47547, 2021-03-26)"
   sodipodi:docname="Beta.svg">
  <defs
     id="defs2" />
  <sodipodi:namedview
     id="base"
     pagecolor="#ffffff"
     bordercolor="#666666"
     borderopacity="1.0"
     inkscape:pageopacity="0.0"
     inkscape:pageshadow="2"
     inkscape:zoom="3.959798"
     inkscape:cx="-46.484454"
     inkscape:cy="90.13496"
     inkscape:document-units="mm"
     inkscape:current-layer="layer1"
     inkscape:document-rotation="0"
     showgrid="false"
     units="px"
     inkscape:window-width="1499"
     inkscape:window-height="1025"
     inkscape:window-x="1970"
     inkscape:window-y="27"
     inkscape:window-maximized="0" />
  <metadata
     id="metadata5">
    <rdf:RDF>
      <cc:Work
         rdf:about="">
        <dc:format>image/svg+xml</dc:format>
        <dc:type
           rdf:resource="http://purl.org/dc/dcmitype/StillImage" />
        <dc:title />
      </cc:Work>
    </rdf:RDF>
  </metadata>
  <g
     inkscape:label="Layer 1"
     inkscape:groupmode="layer"
     id="layer1">
    <g
       aria-label="Β"
       id="text839"
       style="font-size:25.7268px;line-height:1.25;font-family:sans-serif;text-align:center;text-anchor:middle;stroke-width:1.60792">
      <path
         d="m 7.8859735,12.420825 v 6.871367 h 4.0700605 q 2.047592,0 3.027421,-0.841648 0.992391,-0.85421 0.992391,-2.600316 0,-1.758668 -0.992391,-2.587755 -0.979829,-0.841648 -3.027421,-0.841648 z m 0,-7.7130155 v 5.6528615 h 3.7560125 q 1.859163,0 2.763621,-0.6909053 0.91702,-0.7034672 0.91702,-2.1355255 0,-1.4194963 -0.91702,-2.1229635 Q 13.501149,4.7078095 11.641986,4.7078095 Z M 5.3484667,2.6225317 h 6.4819483 q 2.901802,0 4.472041,1.2059437 1.570239,1.2059438 1.570239,3.4294027 0,1.7209823 -0.803962,2.7384974 -0.803963,1.0175155 -2.36164,1.2687535 1.871725,0.401981 2.901802,1.683296 1.042639,1.268754 1.042639,3.178165 0,2.512383 -1.70842,3.881631 -1.708421,1.369249 -4.861461,1.369249 H 5.3484667 Z"
         style="stroke-width:1.60792"
         id="path9" />
    </g>
  </g>
</svg>
