<?xml version="1.0" encoding="UTF-8" standalone="no"?>
<svg
   xmlns:dc="http://purl.org/dc/elements/1.1/"
   xmlns:cc="http://creativecommons.org/ns#"
   xmlns:rdf="http://www.w3.org/1999/02/22-rdf-syntax-ns#"
   xmlns:svg="http://www.w3.org/2000/svg"
   xmlns="http://www.w3.org/2000/svg"
   xmlns:sodipodi="http://sodipodi.sourceforge.net/DTD/sodipodi-0.dtd"
   xmlns:inkscape="http://www.inkscape.org/namespaces/inkscape"
   width="24"
   height="24"
   viewBox="0 0 24 24"
   version="1.1"
   id="svg8"
   inkscape:version="1.0.2 (394de47547, 2021-03-26)"
   sodipodi:docname="LatexEquation.svg">
  <defs
     id="defs2" />
  <sodipodi:namedview
     id="base"
     pagecolor="#ffffff"
     bordercolor="#666666"
     borderopacity="1.0"
     inkscape:pageopacity="0.0"
     inkscape:pageshadow="2"
     inkscape:zoom="3.959798"
     inkscape:cx="9.7052805"
     inkscape:cy="39.627333"
     inkscape:document-units="mm"
     inkscape:current-layer="text58"
     inkscape:document-rotation="0"
     showgrid="false"
     units="px"
     inkscape:window-width="1920"
     inkscape:window-height="1025"
     inkscape:window-x="1920"
     inkscape:window-y="27"
     inkscape:window-maximized="1" />
  <metadata
     id="metadata5">
    <rdf:RDF>
      <cc:Work
         rdf:about="">
        <dc:format>image/svg+xml</dc:format>
        <dc:type
           rdf:resource="http://purl.org/dc/dcmitype/StillImage" />
        <dc:title></dc:title>
      </cc:Work>
    </rdf:RDF>
  </metadata>
  <g
     inkscape:label="Layer 1"
     inkscape:groupmode="layer"
     id="layer1">
    <g
       aria-label="Α"
       id="text839"
       style="font-size:6.43543px;line-height:1.25;font-family:sans-serif;text-align:center;text-anchor:middle;stroke-width:0.402214">
      <g
         aria-label="$$"
         id="text58"
         style="font-size:16.5257px;line-height:1.25;font-family:sans-serif;stroke-width:0.415429">
        <path
           id="path60"
           style="stroke-width:0.415429"
           d="M 6.2578125 4.5078125 L 6.2578125 6.4042969 C 5.1604028 6.4796093 4.3187829 6.7697215 3.7324219 7.2753906 C 3.1460608 7.7810598 2.8535156 8.4727574 2.8535156 9.3496094 C 2.8535156 10.156528 3.1222103 10.791273 3.6601562 11.253906 C 4.2034817 11.71654 5.068952 12.044621 6.2578125 12.238281 L 6.2578125 15.917969 C 5.6606925 15.912589 5.0804682 15.822533 4.515625 15.650391 C 3.9561612 15.472869 3.4022205 15.213426 2.8535156 14.869141 L 2.8535156 16.320312 C 3.4237383 16.562389 3.9917974 16.745413 4.5566406 16.869141 C 5.1214839 16.987489 5.6851568 17.051741 6.25 17.0625 L 6.2578125 19.492188 L 7.0664062 19.492188 L 7.0664062 17.046875 C 8.2176106 16.966183 9.0971992 16.664385 9.7050781 16.142578 C 10.318337 15.615391 10.625 14.89741 10.625 13.988281 C 10.625 13.149086 10.337321 12.488058 9.7617188 12.003906 C 9.1861165 11.519755 8.2875435 11.184375 7.0664062 10.996094 L 7.0664062 7.5507812 C 7.5613165 7.572299 8.0417527 7.6438505 8.5097656 7.7675781 C 8.9831581 7.8913057 9.4441299 8.0670314 9.890625 8.2929688 L 9.890625 6.8808594 C 9.4441299 6.735614 8.9855911 6.6217076 8.5175781 6.5410156 C 8.0495652 6.4549444 7.566696 6.4004242 7.0664062 6.3789062 L 7.0664062 4.5078125 L 6.2578125 4.5078125 z M 16.78125 4.5078125 L 16.78125 6.4042969 C 15.68384 6.4796093 14.84222 6.7697215 14.255859 7.2753906 C 13.669498 7.7810598 13.375 8.4727574 13.375 9.3496094 C 13.375 10.156528 13.645648 10.791273 14.183594 11.253906 C 14.726919 11.71654 15.592389 12.044621 16.78125 12.238281 L 16.78125 15.917969 C 16.18413 15.912589 15.601953 15.822533 15.037109 15.650391 C 14.477645 15.472869 13.923705 15.213426 13.375 14.869141 L 13.375 16.320312 C 13.945223 16.562389 14.513282 16.745413 15.078125 16.869141 C 15.642968 16.987488 16.208594 17.05174 16.773438 17.0625 L 16.78125 19.492188 L 17.587891 19.492188 L 17.587891 17.046875 C 18.739095 16.966183 19.618683 16.664385 20.226562 16.142578 C 20.83982 15.615391 21.146484 14.89741 21.146484 13.988281 C 21.146484 13.149086 20.858805 12.488058 20.283203 12.003906 C 19.707601 11.519755 18.809028 11.184375 17.587891 10.996094 L 17.587891 7.5507812 C 18.082801 7.572299 18.56519 7.6438505 19.033203 7.7675781 C 19.506595 7.8913057 19.965635 8.0670314 20.412109 8.2929688 L 20.412109 6.8808594 C 19.965614 6.735614 19.509028 6.6217076 19.041016 6.5410156 C 18.573002 6.4549444 18.08818 6.4004242 17.587891 6.3789062 L 17.587891 4.5078125 L 16.78125 4.5078125 z M 6.2578125 7.5410156 L 6.2578125 10.849609 C 5.5853801 10.736641 5.0976448 10.551183 4.7910156 10.292969 C 4.4897659 10.034754 4.3378906 9.6755241 4.3378906 9.2128906 C 4.3378906 8.7394982 4.5019311 8.3593301 4.8300781 8.0742188 C 5.1582252 7.7891074 5.6337952 7.6109486 6.2578125 7.5410156 z M 16.78125 7.5410156 L 16.78125 10.849609 C 16.108817 10.736641 15.619129 10.551183 15.3125 10.292969 C 15.011251 10.034754 14.861328 9.6755241 14.861328 9.2128906 C 14.861328 8.7394982 15.025369 8.3593301 15.353516 8.0742188 C 15.681663 7.7891074 16.157233 7.6109486 16.78125 7.5410156 z M 7.0664062 12.400391 C 7.7818743 12.529498 8.3027123 12.731987 8.6308594 13.011719 C 8.9643858 13.29145 9.1308594 13.669185 9.1308594 14.142578 C 9.1308594 14.626729 8.9570867 15.01663 8.6074219 15.3125 C 8.2631365 15.608371 7.7495976 15.801127 7.0664062 15.892578 L 7.0664062 12.400391 z M 17.587891 12.400391 C 18.303359 12.529498 18.82615 12.731987 19.154297 13.011719 C 19.487824 13.29145 19.654297 13.669185 19.654297 14.142578 C 19.654297 14.626729 19.478571 15.01663 19.128906 15.3125 C 18.784621 15.608371 18.271082 15.801127 17.587891 15.892578 L 17.587891 12.400391 z " />
      </g>
    </g>
  </g>
</svg>
