<?xml version="1.0" encoding="UTF-8" standalone="no"?>
<svg
   xmlns:dc="http://purl.org/dc/elements/1.1/"
   xmlns:cc="http://creativecommons.org/ns#"
   xmlns:rdf="http://www.w3.org/1999/02/22-rdf-syntax-ns#"
   xmlns:svg="http://www.w3.org/2000/svg"
   xmlns="http://www.w3.org/2000/svg"
   xmlns:sodipodi="http://sodipodi.sourceforge.net/DTD/sodipodi-0.dtd"
   xmlns:inkscape="http://www.inkscape.org/namespaces/inkscape"
   width="24"
   height="24"
   viewBox="0 0 24 24"
   version="1.1"
   id="svg8"
   inkscape:version="1.0.2 (394de47547, 2021-03-26)"
   sodipodi:docname="Omega.svg">
  <defs
     id="defs2" />
  <sodipodi:namedview
     id="base"
     pagecolor="#ffffff"
     bordercolor="#666666"
     borderopacity="1.0"
     inkscape:pageopacity="0.0"
     inkscape:pageshadow="2"
     inkscape:zoom="3.959798"
     inkscape:cx="9.7052805"
     inkscape:cy="90.13496"
     inkscape:document-units="mm"
     inkscape:current-layer="layer1"
     inkscape:document-rotation="0"
     showgrid="false"
     units="px"
     inkscape:window-width="1920"
     inkscape:window-height="1025"
     inkscape:window-x="1920"
     inkscape:window-y="27"
     inkscape:window-maximized="1" />
  <metadata
     id="metadata5">
    <rdf:RDF>
      <cc:Work
         rdf:about="">
        <dc:format>image/svg+xml</dc:format>
        <dc:type
           rdf:resource="http://purl.org/dc/dcmitype/StillImage" />
        <dc:title />
      </cc:Work>
    </rdf:RDF>
  </metadata>
  <g
     inkscape:label="Layer 1"
     inkscape:groupmode="layer"
     id="layer1">
    <g
       aria-label="Ω"
       id="text839"
       style="font-size:23.8402px;line-height:1.25;font-family:sans-serif;text-align:center;text-anchor:middle;stroke-width:1.49002">
      <path
         d="m 20.200889,18.722517 v 2.072048 h -6.984433 v -2.072048 q 2.060408,-1.129151 3.212839,-3.061511 1.152432,-1.93236 1.152432,-4.283786 0,-2.7937731 -1.536576,-4.4816779 -1.536575,-1.6879048 -4.050971,-1.6879048 -2.5143964,0 -4.0626126,1.6995455 Q 6.394992,8.5950876 6.394992,11.37722 q 0,2.351426 1.1524316,4.283786 1.1640723,1.93236 3.2361214,3.061511 v 2.072048 H 3.7991108 v -2.072048 h 3.7133906 q -1.8392342,-1.618061 -2.689007,-3.352529 -0.838132,-1.734467 -0.838132,-3.87636 0,-3.7017502 2.2350188,-5.9949726 Q 8.4437593,3.205433 11.99418,3.205433 q 3.527139,0 5.773798,2.2932224 2.235019,2.2815816 2.235019,5.8785646 0,2.258301 -0.826491,3.981128 -0.826492,1.722827 -2.700648,3.364169 z"
         style="stroke-width:1.49002"
         id="path9" />
    </g>
  </g>
</svg>
