<?xml version="1.0" encoding="UTF-8" standalone="no"?>
<svg
   xmlns:dc="http://purl.org/dc/elements/1.1/"
   xmlns:cc="http://creativecommons.org/ns#"
   xmlns:rdf="http://www.w3.org/1999/02/22-rdf-syntax-ns#"
   xmlns:svg="http://www.w3.org/2000/svg"
   xmlns="http://www.w3.org/2000/svg"
   xmlns:sodipodi="http://sodipodi.sourceforge.net/DTD/sodipodi-0.dtd"
   xmlns:inkscape="http://www.inkscape.org/namespaces/inkscape"
   width="24"
   height="24"
   viewBox="0 0 24 24"
   version="1.1"
   id="svg8"
   inkscape:version="1.0.2 (394de47547, 2021-03-26)"
   sodipodi:docname="phi.svg">
  <defs
     id="defs2" />
  <sodipodi:namedview
     id="base"
     pagecolor="#ffffff"
     bordercolor="#666666"
     borderopacity="1.0"
     inkscape:pageopacity="0.0"
     inkscape:pageshadow="2"
     inkscape:zoom="3.959798"
     inkscape:cx="9.7052805"
     inkscape:cy="90.13496"
     inkscape:document-units="mm"
     inkscape:current-layer="layer1"
     inkscape:document-rotation="0"
     showgrid="false"
     units="px"
     inkscape:window-width="1920"
     inkscape:window-height="1025"
     inkscape:window-x="1920"
     inkscape:window-y="27"
     inkscape:window-maximized="1" />
  <metadata
     id="metadata5">
    <rdf:RDF>
      <cc:Work
         rdf:about="">
        <dc:format>image/svg+xml</dc:format>
        <dc:type
           rdf:resource="http://purl.org/dc/dcmitype/StillImage" />
        <dc:title />
      </cc:Work>
    </rdf:RDF>
  </metadata>
  <g
     inkscape:label="Layer 1"
     inkscape:groupmode="layer"
     id="layer1">
    <g
       aria-label="φ"
       id="text839"
       style="font-size:23.5819px;line-height:1.25;font-family:sans-serif;text-align:center;text-anchor:middle;stroke-width:1.47386">
      <path
         d="m 13.801441,4.860948 q -0.748449,0 -0.748449,1.6696169 V 14.42958 q 1.082372,0 2.187774,-1.197518 0.990255,-1.070858 0.978741,-3.6386136 Q 16.207992,7.1984117 15.229251,5.9087766 14.423229,4.860948 13.801441,4.860948 Z m 0,-1.8077921 q 1.658102,0 3.074398,1.5199271 1.531442,1.6235586 1.5775,5.0203654 0.04606,3.1204566 -1.5775,4.9743066 -1.531442,1.750219 -3.822847,1.750219 v 4.628869 H 10.94582 v -4.617354 q -2.2914051,0 -3.8343614,-1.761734 Q 5.5454731,12.771478 5.5454731,9.604963 5.5339585,6.3117875 7.1114586,4.630656 8.308977,3.3755647 10.197371,3.0531559 V 4.9300356 Q 9.4374077,5.1948714 8.7695609,6.0930102 7.7677908,7.4171891 7.7793054,9.604963 7.79082,11.930912 8.7695609,13.255091 9.6446705,14.441095 10.94582,14.441095 V 6.5305649 q 0,-3.477409 2.855621,-3.477409 z"
         style="stroke-width:1.47386"
         id="path9" />
    </g>
  </g>
</svg>
