<?xml version="1.0" encoding="UTF-8" standalone="no"?>
<svg
   xmlns:dc="http://purl.org/dc/elements/1.1/"
   xmlns:cc="http://creativecommons.org/ns#"
   xmlns:rdf="http://www.w3.org/1999/02/22-rdf-syntax-ns#"
   xmlns:svg="http://www.w3.org/2000/svg"
   xmlns="http://www.w3.org/2000/svg"
   xmlns:sodipodi="http://sodipodi.sourceforge.net/DTD/sodipodi-0.dtd"
   xmlns:inkscape="http://www.inkscape.org/namespaces/inkscape"
   width="24"
   height="24"
   viewBox="0 0 24 24"
   version="1.1"
   id="svg8"
   inkscape:version="1.0.2 (394de47547, 2021-03-26)"
   sodipodi:docname="theta.svg">
  <defs
     id="defs2" />
  <sodipodi:namedview
     id="base"
     pagecolor="#ffffff"
     bordercolor="#666666"
     borderopacity="1.0"
     inkscape:pageopacity="0.0"
     inkscape:pageshadow="2"
     inkscape:zoom="3.959798"
     inkscape:cx="9.7052805"
     inkscape:cy="90.13496"
     inkscape:document-units="mm"
     inkscape:current-layer="layer1"
     inkscape:document-rotation="0"
     showgrid="false"
     units="px"
     inkscape:window-width="1920"
     inkscape:window-height="1025"
     inkscape:window-x="1920"
     inkscape:window-y="27"
     inkscape:window-maximized="1" />
  <metadata
     id="metadata5">
    <rdf:RDF>
      <cc:Work
         rdf:about="">
        <dc:format>image/svg+xml</dc:format>
        <dc:type
           rdf:resource="http://purl.org/dc/dcmitype/StillImage" />
        <dc:title />
      </cc:Work>
    </rdf:RDF>
  </metadata>
  <g
     inkscape:label="Layer 1"
     inkscape:groupmode="layer"
     id="layer1">
    <g
       aria-label="θ"
       id="text839"
       style="font-size:23.0541px;line-height:1.25;font-family:sans-serif;text-align:center;text-anchor:middle;stroke-width:1.44088">
      <path
         d="M 15.579689,12.72607 H 8.4090535 Q 8.5779067,16.091879 9.3546318,17.521503 10.322724,19.277577 12,19.277577 q 1.688532,0 2.622854,-1.767331 0.821752,-1.55345 0.956835,-4.784176 z M 15.545918,10.8124 Q 15.230726,7.6154443 14.622854,6.4897558 13.654762,4.711168 12,4.711168 q -1.722304,0 -2.6341113,1.756074 Q 8.645448,7.8856095 8.4315672,10.8124 Z M 12,3.0226353 q 2.701652,0 4.243845,2.3864596 1.542193,2.3752027 1.542193,6.5852771 0,4.198818 -1.542193,6.585278 Q 14.701652,20.977367 12,20.977367 q -2.7129095,0 -4.2438459,-2.397717 -1.5421932,-2.38646 -1.5421932,-6.585278 0,-4.2100744 1.5421932,-6.5852771 Q 9.2870905,3.0226353 12,3.0226353 Z"
         style="stroke-width:1.44088"
         id="path9" />
    </g>
  </g>
</svg>
