<?xml version="1.0" encoding="UTF-8" standalone="no"?>
<svg
   xmlns:dc="http://purl.org/dc/elements/1.1/"
   xmlns:cc="http://creativecommons.org/ns#"
   xmlns:rdf="http://www.w3.org/1999/02/22-rdf-syntax-ns#"
   xmlns:svg="http://www.w3.org/2000/svg"
   xmlns="http://www.w3.org/2000/svg"
   xmlns:sodipodi="http://sodipodi.sourceforge.net/DTD/sodipodi-0.dtd"
   xmlns:inkscape="http://www.inkscape.org/namespaces/inkscape"
   width="24"
   height="24"
   viewBox="0 0 24 24"
   version="1.1"
   id="svg8"
   inkscape:version="1.0.2 (394de47547, 2021-03-26)"
   sodipodi:docname="thetaV2.svg">
  <defs
     id="defs2" />
  <sodipodi:namedview
     id="base"
     pagecolor="#ffffff"
     bordercolor="#666666"
     borderopacity="1.0"
     inkscape:pageopacity="0.0"
     inkscape:pageshadow="2"
     inkscape:zoom="3.959798"
     inkscape:cx="9.7052805"
     inkscape:cy="90.13496"
     inkscape:document-units="mm"
     inkscape:current-layer="layer1"
     inkscape:document-rotation="0"
     showgrid="false"
     units="px"
     inkscape:window-width="1920"
     inkscape:window-height="1025"
     inkscape:window-x="1920"
     inkscape:window-y="27"
     inkscape:window-maximized="1" />
  <metadata
     id="metadata5">
    <rdf:RDF>
      <cc:Work
         rdf:about="">
        <dc:format>image/svg+xml</dc:format>
        <dc:type
           rdf:resource="http://purl.org/dc/dcmitype/StillImage" />
        <dc:title />
      </cc:Work>
    </rdf:RDF>
  </metadata>
  <g
     inkscape:label="Layer 1"
     inkscape:groupmode="layer"
     id="layer1">
    <g
       aria-label="ϑ"
       id="text839"
       style="font-size:22.546px;line-height:1.25;font-family:sans-serif;text-align:center;text-anchor:middle;stroke-width:1.40913">
      <path
         d="m 15.469438,10.838572 q 0.06605,-2.7081621 -0.539431,-4.0952695 -0.825659,-1.8714941 -2.36689,-1.8714941 -0.913729,0 -1.618292,0.781624 -0.616492,0.7265801 -0.616492,1.7173711 0,1.6843447 1.332064,2.8622855 0.81465,0.715571 3.809041,0.605483 z m 0.03303,1.871494 q -3.390707,0.09908 -4.832858,-0.715571 -2.3228548,-1.321055 -2.3228548,-4.5686476 0,-1.7614062 1.144914,-2.9723729 1.1449138,-1.2329844 3.0714518,-1.2329844 2.300837,0 3.787024,2.3338632 1.409125,2.2017578 1.310046,6.4401417 -0.09908,4.260401 -1.508205,6.440141 -1.508204,2.344872 -4.150313,2.344872 -2.6090829,0 -4.1503133,-2.344872 -1.6403096,-2.476977 -1.5082041,-7.607073 l 2.1467138,0.01101 q -0.36329,4.205357 0.9247383,6.572247 0.9357473,1.706362 2.5870653,1.706362 1.585266,0 2.565048,-1.717371 1.045835,-1.827459 0.935747,-4.689744 z"
         style="stroke-width:1.40913"
         id="path9" />
    </g>
  </g>
</svg>
