<?xml version="1.0" encoding="UTF-8" standalone="no"?>
<svg
   xmlns:dc="http://purl.org/dc/elements/1.1/"
   xmlns:cc="http://creativecommons.org/ns#"
   xmlns:rdf="http://www.w3.org/1999/02/22-rdf-syntax-ns#"
   xmlns:svg="http://www.w3.org/2000/svg"
   xmlns="http://www.w3.org/2000/svg"
   xmlns:sodipodi="http://sodipodi.sourceforge.net/DTD/sodipodi-0.dtd"
   xmlns:inkscape="http://www.inkscape.org/namespaces/inkscape"
   width="24"
   height="24"
   viewBox="0 0 24 24"
   version="1.1"
   id="svg8"
   inkscape:version="1.0.2 (394de47547, 2021-03-26)"
   sodipodi:docname="xi.svg">
  <defs
     id="defs2" />
  <sodipodi:namedview
     id="base"
     pagecolor="#ffffff"
     bordercolor="#666666"
     borderopacity="1.0"
     inkscape:pageopacity="0.0"
     inkscape:pageshadow="2"
     inkscape:zoom="3.959798"
     inkscape:cx="9.7052805"
     inkscape:cy="90.13496"
     inkscape:document-units="mm"
     inkscape:current-layer="layer1"
     inkscape:document-rotation="0"
     showgrid="false"
     units="px"
     inkscape:window-width="1920"
     inkscape:window-height="1025"
     inkscape:window-x="1920"
     inkscape:window-y="27"
     inkscape:window-maximized="1" />
  <metadata
     id="metadata5">
    <rdf:RDF>
      <cc:Work
         rdf:about="">
        <dc:format>image/svg+xml</dc:format>
        <dc:type
           rdf:resource="http://purl.org/dc/dcmitype/StillImage" />
        <dc:title />
      </cc:Work>
    </rdf:RDF>
  </metadata>
  <g
     inkscape:label="Layer 1"
     inkscape:groupmode="layer"
     id="layer1">
    <g
       aria-label="ξ"
       id="text839"
       style="font-size:18.1782px;line-height:1.25;font-family:sans-serif;text-align:center;text-anchor:middle;stroke-width:1.13614">
      <path
         d="m 13.455676,15.869969 q 1.171642,0.0089 1.872851,0.674582 0.745591,0.70121 0.745591,1.766338 0,1.020749 -0.65683,1.730835 -0.710086,0.772218 -2.156886,0.772218 0,-0.665705 0,-1.340287 0.612449,0.04438 0.985244,-0.346167 0.284035,-0.310662 0.284035,-0.639077 0,-0.470432 -0.284035,-0.860979 -0.275158,-0.372795 -0.78997,-0.372795 -5.5297944,0 -5.5297944,-3.878845 0,-2.662822 2.9557324,-3.4439165 -2.4853005,-0.3195386 -2.4853005,-2.6273179 0,-1.7485866 1.9527365,-2.4764247 H 8.5028264 V 3.1860592 h 7.0032226 v 1.6420737 q -5.5830508,0 -5.5830508,2.5829376 0,1.6953301 4.6865668,1.7752148 v 1.5089327 q -5.0593619,-0.195274 -5.0416097,2.680574 0.00888,2.405416 3.8877207,2.494177 z"
         style="stroke-width:1.13614"
         id="path9" />
    </g>
  </g>
</svg>
