<?xml version="1.0" encoding="UTF-8" standalone="no"?>
<svg
   xmlns:dc="http://purl.org/dc/elements/1.1/"
   xmlns:cc="http://creativecommons.org/ns#"
   xmlns:rdf="http://www.w3.org/1999/02/22-rdf-syntax-ns#"
   xmlns:svg="http://www.w3.org/2000/svg"
   xmlns="http://www.w3.org/2000/svg"
   xmlns:sodipodi="http://sodipodi.sourceforge.net/DTD/sodipodi-0.dtd"
   xmlns:inkscape="http://www.inkscape.org/namespaces/inkscape"
   width="24"
   height="24"
   viewBox="0 0 24 24"
   version="1.1"
   id="svg8"
   inkscape:version="1.0.2 (394de47547, 2021-03-26)"
   sodipodi:docname="zeta.svg">
  <defs
     id="defs2" />
  <sodipodi:namedview
     id="base"
     pagecolor="#ffffff"
     bordercolor="#666666"
     borderopacity="1.0"
     inkscape:pageopacity="0.0"
     inkscape:pageshadow="2"
     inkscape:zoom="3.959798"
     inkscape:cx="9.7052805"
     inkscape:cy="90.13496"
     inkscape:document-units="mm"
     inkscape:current-layer="layer1"
     inkscape:document-rotation="0"
     showgrid="false"
     units="px"
     inkscape:window-width="1920"
     inkscape:window-height="1025"
     inkscape:window-x="1920"
     inkscape:window-y="27"
     inkscape:window-maximized="1" />
  <metadata
     id="metadata5">
    <rdf:RDF>
      <cc:Work
         rdf:about="">
        <dc:format>image/svg+xml</dc:format>
        <dc:type
           rdf:resource="http://purl.org/dc/dcmitype/StillImage" />
        <dc:title />
      </cc:Work>
    </rdf:RDF>
  </metadata>
  <g
     inkscape:label="Layer 1"
     inkscape:groupmode="layer"
     id="layer1">
    <g
       aria-label="ζ"
       id="text839"
       style="font-size:18.1855px;line-height:1.25;font-family:sans-serif;text-align:center;text-anchor:middle;stroke-width:1.13659">
      <path
         d="m 13.354145,15.871523 q 1.172112,0.0089 1.873604,0.674853 0.74589,0.701491 0.74589,1.767048 0,1.021158 -0.657094,1.731529 -0.710371,0.772529 -2.157752,0.772529 0,-0.665973 0,-1.340826 0.612695,0.0444 0.98564,-0.346306 0.284148,-0.310787 0.284148,-0.639334 0,-0.470621 -0.284148,-0.861325 -0.275269,-0.372944 -0.790288,-0.372944 -5.3810606,0 -5.3899402,-4.999237 0,-4.3687818 5.0702732,-7.432257 H 8.3105107 V 3.1825199 H 16.035796 V 4.825253 q -6.4288581,3.2321883 -6.4288581,7.432257 0,3.614013 3.7472071,3.614013 z"
         style="stroke-width:1.13659"
         id="path9" />
    </g>
  </g>
</svg>
